<svg xmlns="http://www.w3.org/2000/svg" viewBox="0 0 512.001 512.001" width="512" height="512"><path d="M244.469 265.441c9.16 8.429 29.556 27.196-.014-.013-5.936-5.462-4.103-3.775-.008-.007-19.195-17.661-40.354-31.086-59.58-37.802-21.662-7.566-39.01-5.848-48.842 4.838-9.834 10.686-10.105 28.115-.766 49.075 8.289 18.604 23.428 38.579 42.626 56.244 19.198 17.664 40.359 31.092 59.588 37.809 1.222.426 2.427.817 3.62 1.185L38.356 489.166l78.803-176.245c2.001-4.476-.005-9.729-4.481-11.73-4.48-2-9.729.004-11.73 4.481L17.235 492.898c-4.914 10.915 8.791 23.411 19.181 17.648l239.431-132.739c4.26-2.055 7.333-3.952 10.468-7.061 19.898-19.73.983-65.889-41.846-105.305zm28.777 93.284c-6.012 7.716-22.256 2.773-29.918.096-16.993-5.936-35.964-18.05-53.42-34.112-17.455-16.06-31.103-33.962-38.43-50.402-6.093-13.677-6.986-24.826-2.387-29.824 2.315-2.516 6.297-3.774 11.486-3.774 5.119 0 11.414 1.225 18.432 3.677 16.993 5.936 35.964 18.05 53.42 34.112 38.462 35.39 48.874 69.882 40.817 80.227z" fill="#FFF"/><g fill="#FFF"><path d="M210.75 210.565c-3.723-3.192 1.674 1.436 0 0z"/><path d="M256.079 31.831a8.88 8.88 0 1 0-10.422-14.38C223.8 33.292 212.904 49.64 213.272 66.044c.265 11.886 6.06 19.148 11.665 26.171 4.834 6.057 9.832 12.32 12.28 23.056 3.749 16.44-1.106 31.041-5.389 43.923-4.737 14.25-12.152 27.321-22.039 38.852a8.879 8.879 0 0 0 .96 12.521c3.672 3.15 9.37 2.711 12.519-.961 11.394-13.288 19.943-28.363 25.411-44.809 4.516-13.586 10.703-32.193 5.851-53.474-3.352-14.689-10.206-23.28-15.714-30.183-5.033-6.308-7.666-9.86-7.791-15.491-.284-12.74 13.468-25.422 25.054-33.818z"/></g><path d="M335.792 70.703h-.015a8.879 8.879 0 0 0-8.879 8.864c-.025 14.689-2.931 28.845-8.639 42.073-10.961 25.405-29.288 40.692-42.734 49.044-4.165 2.588-5.443 8.063-2.856 12.229a8.876 8.876 0 0 0 12.228 2.856c15.602-9.692 36.883-27.465 49.668-57.093 6.668-15.455 10.063-31.968 10.09-49.08a8.878 8.878 0 0 0-8.863-8.893zm124.194 46.083c-4.283-2.393-9.691-.863-12.084 3.414-12.118 21.662-27.532 36.776-45.812 44.923-12.973 5.782-23.731 6.514-35.119 7.287-12.262.835-24.943 1.696-39.101 9.214-22.45 11.917-38.839 35.804-48.713 70.998-1.258 4.486 1.286 9.316 5.699 10.809 4.758 1.609 10.042-1.174 11.398-6.01 8.51-30.337 21.949-50.561 39.941-60.112 10.813-5.742 20.622-6.408 31.979-7.18 11.855-.806 25.291-1.719 41.143-8.784 21.857-9.742 40.053-27.396 54.081-52.473a8.881 8.881 0 0 0-3.412-12.086zm4.456 165.398a8.874 8.874 0 0 0-12.223-2.866c-14.134 8.765-27.049 11.956-38.377 9.484-7.095-1.55-11.392-4.799-16.833-8.914-4.296-3.249-9.164-6.93-15.792-9.878-19.998-8.893-45.393-6.129-75.482 8.214a8.88 8.88 0 0 0 7.642 16.03c25.189-12.01 45.587-14.706 60.623-8.02 4.76 2.117 8.42 4.886 12.296 7.817 6.023 4.556 12.85 9.72 23.758 12.1 3.76.82 7.592 1.231 11.494 1.231 12.698 0 26.114-4.341 40.03-12.974a8.875 8.875 0 0 0 2.864-12.224zm20.804-84.64c-.708-4.838-5.186-8.181-10.026-7.503 1.061-.155 1.591-.233-.045.004-6.043.884-2.25.331-.118.02a89.98 89.98 0 0 0-26.662 8.292c-11.659 5.745-22.19 14.199-30.457 24.45-2.813 3.488-2.537 8.695.639 11.859 3.685 3.67 9.92 3.337 13.184-.711 6.658-8.256 15.124-15.058 24.485-19.669a72.195 72.195 0 0 1 21.501-6.671c4.851-.711 8.21-5.219 7.499-10.071zm-113.568 25.655c-5.494 0-9.963 4.47-9.963 9.963 0 5.494 4.469 9.963 9.963 9.963 5.494 0 9.963-4.469 9.963-9.963 0-5.494-4.469-9.963-9.963-9.963zm20.92-128.3c-5.494 0-9.963 4.469-9.963 9.963 0 5.493 4.47 9.962 9.963 9.962 5.494 0 9.963-4.469 9.963-9.962 0-5.494-4.469-9.963-9.963-9.963zM317.367 0c-5.494 0-9.963 4.469-9.963 9.963 0 5.493 4.469 9.962 9.963 9.962s9.963-4.469 9.963-9.962c0-5.494-4.469-9.963-9.963-9.963zm164.824 63.059c-5.494 0-9.963 4.469-9.963 9.962 0 5.493 4.47 9.963 9.964 9.963 5.494 0 9.963-4.469 9.963-9.963-.001-5.493-4.47-9.962-9.964-9.962zm-61.185-44.317c-5.493 0-9.962 4.469-9.962 9.963s4.469 9.963 9.962 9.963c5.494 0 9.963-4.469 9.963-9.963s-4.469-9.963-9.963-9.963zM280.212 53.687c-5.494 0-9.963 4.469-9.963 9.963 0 5.492 4.469 9.962 9.963 9.962 5.494 0 9.963-4.469 9.963-9.962.001-5.494-4.468-9.963-9.963-9.963zm205.62 187.902c-5.494 0-9.963 4.469-9.963 9.962 0 5.494 4.469 9.963 9.963 9.963 5.494 0 9.963-4.469 9.963-9.963.001-5.491-4.468-9.962-9.963-9.962zM193.644 131.083c-5.494 0-9.963 4.469-9.963 9.963 0 5.492 4.469 9.962 9.963 9.962 5.493 0 9.962-4.469 9.962-9.962.001-5.494-4.469-9.963-9.962-9.963zm-34.202 217.601c-15.223 0-27.609 12.386-27.609 27.609s12.386 27.609 27.609 27.609c15.223 0 27.609-12.386 27.609-27.609s-12.385-27.609-27.609-27.609zm0 37.46c-5.432 0-9.851-4.421-9.851-9.851 0-5.432 4.419-9.851 9.851-9.851s9.851 4.419 9.851 9.851c0 5.432-4.419 9.851-9.851 9.851zm-45.346 23.002c-2.597-6.902-7.727-12.38-14.444-15.423a8.874 8.874 0 0 0-11.752 4.422c-2.024 4.467-.044 9.729 4.422 11.752 2.396 1.087 4.226 3.04 5.153 5.503s.839 5.139-.247 7.536c-2.241 4.946-8.087 7.146-13.038 4.906-4.466-2.024-9.73-.044-11.752 4.422a8.88 8.88 0 0 0 4.422 11.752 27.457 27.457 0 0 0 11.356 2.461c10.51-.001 20.574-6.032 25.187-16.211 3.041-6.717 3.289-14.217.693-21.12z" fill="#FFF"/></svg>