<svg xmlns="http://www.w3.org/2000/svg" viewBox="0 0 60 60" width="512" height="512"><g fill="#FFF"><path d="M30 10.781a1 1 0 0 0 1-1v-6a1 1 0 0 0-2 0v6a1 1 0 0 0 1 1zm29 21h-6a1 1 0 1 0 0 2h6a1 1 0 1 0 0-2zm-58 2h6a1 1 0 0 0 0-2H1a1 1 0 0 0 0 2zm45.264-16.264a.997.997 0 0 0 .707-.293l5.736-5.736a.999.999 0 1 0-1.414-1.414l-5.736 5.736a.999.999 0 0 0 .707 1.707zm-33.235-.293a.997.997 0 0 0 1.414 0 .999.999 0 0 0 0-1.414l-5.736-5.736a.999.999 0 1 0-1.414 1.414l5.736 5.736zm37.222 6.961a1.001 1.001 0 0 0 1.312.53l2.762-1.172a1 1 0 1 0-.782-1.841l-2.762 1.172a.999.999 0 0 0-.53 1.311zm-44.732-.217L8.3 25.092a1 1 0 0 0 .749-1.855l-2.782-1.124a1 1 0 1 0-.748 1.855zM20.093 12a1.001 1.001 0 0 0 1.311.53 1 1 0 0 0 .53-1.311l-1.172-2.762a.999.999 0 1 0-1.841.781L20.093 12zm18.148.383a1 1 0 0 0 1.302-.553l1.124-2.782a1 1 0 0 0-1.855-.749l-1.124 2.782a1 1 0 0 0 .553 1.302z"/><path d="M50.379 37.8c.407-1.645.621-3.327.621-5.019 0-11.58-9.42-21-21-21s-21 9.42-21 21c0 1.722.221 3.443.656 5.137A10.592 10.592 0 0 0 8 37.781c-2.916 0-5.657 1.174-7.719 3.305a1 1 0 1 0 1.437 1.391C3.4 40.738 5.631 39.781 8 39.781c.844 0 1.669.127 2.46.362l.334.115c.327.112.645.243.953.39l.035.017c.273.132.536.282.794.441.051.032.103.062.153.095.219.142.43.299.637.461.062.049.126.093.186.143.253.21.497.432.73.672l.718.742.719-.743c.468-.484.982-.9 1.526-1.259l.263-.16a8.6 8.6 0 0 1 4.896-1.255l.096.005c1.68.099 3.334.69 4.751 1.77l.269.205h.001a9.2 9.2 0 0 1 .76.695l.719.742.719-.743c.241-.25.497-.478.76-.695h.002l.269-.205a8.71 8.71 0 0 1 5.235-1.795l.016-.001.016.001c.415.001.829.04 1.241.101.069.01.139.02.208.032a8.697 8.697 0 0 1 3.786 1.662l.269.205h.002a9.2 9.2 0 0 1 .76.695l.717.743.719-.743c.195-.201.398-.389.607-.569.102-.088.209-.168.315-.25.106-.083.211-.168.319-.246.138-.098.28-.19.422-.28.08-.051.16-.102.242-.15.158-.093.319-.18.482-.262.072-.037.145-.072.218-.107.168-.079.339-.154.512-.223.078-.031.156-.058.234-.087.169-.061.338-.12.51-.171.1-.029.202-.053.303-.078.154-.039.307-.079.463-.11a8.54 8.54 0 0 1 .505-.077c.097-.013.193-.032.29-.042.283-.028.569-.043.857-.043 2.369 0 4.6.957 6.281 2.695a1 1 0 0 0 1.437-1.391c-1.969-2.037-4.564-3.187-7.337-3.285zM11 32.781c0-10.477 8.523-19 19-19s19 8.523 19 19c0 1.737-.24 3.463-.715 5.14-.016.003-.032.009-.048.011-.455.076-.901.184-1.339.318l-.109.035c-.753.238-1.479.554-2.165.956A15.893 15.893 0 0 0 46 32.781c0-8.822-7.178-16-16-16s-16 7.178-16 16c0 2.447.58 4.878 1.678 7.086a11.18 11.18 0 0 0-.678.538 10.78 10.78 0 0 0-3.087-1.874 18.776 18.776 0 0 1-.913-5.75zm24.016 5.046c-.274.026-.546.063-.818.111-.113.019-.224.044-.337.067a10.575 10.575 0 0 0-.968.247 10.65 10.65 0 0 0-3.1 1.53h-1.586a10.62 10.62 0 0 0-3.905-1.74l-.027-.006c-.741-.162-1.5-.254-2.275-.254-.137 0-.272.013-.409.018a10.574 10.574 0 0 0-4.198 1.029A13.95 13.95 0 0 1 16 32.781c0-7.72 6.28-14 14-14s14 6.28 14 14c0 2.439-.643 4.831-1.863 6.954a10.62 10.62 0 0 0-2.838-1.421 9.198 9.198 0 0 0-1.188-.316c-.109-.022-.217-.044-.327-.063a10.382 10.382 0 0 0-.744-.101l-.1-.011a10.474 10.474 0 0 0-1.899.001c-.009 0-.017.002-.025.003zM50 44.781c-2.589 0-5.04.925-7 2.624-1.96-1.699-4.411-2.624-7-2.624s-5.04.925-7 2.624c-1.96-1.699-4.411-2.624-7-2.624s-5.04.925-7 2.624a10.622 10.622 0 0 0-7-2.624c-2.916 0-5.657 1.174-7.719 3.305a1 1 0 1 0 1.437 1.391C3.4 47.738 5.631 46.781 8 46.781s4.6.957 6.281 2.695l.719.743.719-.743c1.681-1.738 3.912-2.695 6.281-2.695s4.6.957 6.281 2.695l.719.743.719-.743c1.681-1.738 3.912-2.695 6.281-2.695s4.6.957 6.281 2.695l.719.743.719-.743c1.681-1.738 3.912-2.695 6.281-2.695s4.6.957 6.281 2.695a1 1 0 0 0 1.437-1.391c-2.061-2.13-4.802-3.304-7.718-3.304zm0 7c-2.589 0-5.04.925-7 2.624-1.96-1.699-4.411-2.624-7-2.624s-5.04.925-7 2.624c-1.96-1.699-4.411-2.624-7-2.624s-5.04.925-7 2.624a10.622 10.622 0 0 0-7-2.624c-2.916 0-5.657 1.174-7.719 3.305a1 1 0 1 0 1.437 1.391C3.4 54.738 5.631 53.781 8 53.781s4.6.957 6.281 2.695l.719.743.719-.743c1.681-1.738 3.912-2.695 6.281-2.695s4.6.957 6.281 2.695l.719.743.719-.743c1.681-1.738 3.912-2.695 6.281-2.695s4.6.957 6.281 2.695l.719.743.719-.743c1.681-1.738 3.912-2.695 6.281-2.695s4.6.957 6.281 2.695a.999.999 0 1 0 1.437-1.391c-2.061-2.13-4.802-3.304-7.718-3.304z"/></g></svg>