<svg xmlns="http://www.w3.org/2000/svg" viewBox="0 0 512 512" width="512" height="512"><path d="M256 177.424c-20.116 0-36.482 16.365-36.482 36.482v53.416a8.068 8.068 0 0 0 8.068 8.068h56.828a8.068 8.068 0 0 0 8.068-8.068v-53.416c0-20.117-16.365-36.482-36.482-36.482zm20.347 81.83h-40.693v-45.349c0-11.218 9.127-20.346 20.346-20.346s20.346 9.127 20.346 20.346v45.349zM98.754 375.119c-18.206 0-33.018 14.812-33.018 33.018v46.905a8.068 8.068 0 0 0 8.068 8.068h49.901a8.068 8.068 0 0 0 8.068-8.068v-46.905c-.001-18.206-14.813-33.018-33.019-33.018zm16.883 71.855H81.872v-38.837c0-9.309 7.574-16.883 16.883-16.883s16.883 7.574 16.883 16.883v38.837zm297.61-71.855c-18.206 0-33.018 14.812-33.018 33.018v46.905a8.068 8.068 0 0 0 8.068 8.068h49.901a8.068 8.068 0 0 0 8.068-8.068v-46.905c-.001-18.206-14.814-33.018-33.019-33.018zm16.882 71.855h-33.766v-38.837c0-9.309 7.574-16.883 16.883-16.883s16.883 7.574 16.883 16.883v38.837z" fill="#FFF"/><path d="M492.107 341.454a8.064 8.064 0 0 0-4.122-5.005l-41.986-21.242a8.068 8.068 0 0 0-7.284 14.398l34.159 17.283-8.724 14.172-2.63-1.331-115.714-58.546v-18.587l62.446 31.595a8.068 8.068 0 0 0 7.284-14.398l-69.731-35.28v-80.19l27.855-14.137a8.067 8.067 0 0 0 1.112-13.706L264.068 75.513V41.148h16.554a8.068 8.068 0 1 0 0-16.136h-16.554V8.068a8.068 8.068 0 1 0-16.136 0v16.945h-16.554a8.068 8.068 0 0 0 0 16.136h16.554v34.365l-110.705 80.97a8.067 8.067 0 0 0 1.111 13.706l27.854 14.137v23.542a8.068 8.068 0 1 0 16.136 0v-24.4l37.117-27.148 36.554-26.736 34.409 25.167 39.262 28.717v312.397h-25.04V365.724a8.068 8.068 0 0 0-8.068-8.068h-81.126a8.068 8.068 0 0 0-8.068 8.068v130.141h-25.041V240.138a8.068 8.068 0 0 0-16.136 0v24.377L24.016 336.449a8.066 8.066 0 0 0-3.229 11.428l16.015 26.016v130.039A8.068 8.068 0 0 0 44.87 512h422.262a8.068 8.068 0 0 0 8.068-8.068V373.893l16.014-26.016a8.078 8.078 0 0 0 .893-6.423zM166.194 495.865H52.937V376.569l113.257-57.303v176.599zm0-194.681L50.48 359.729l-2.63 1.331-8.724-14.172 127.068-64.29v18.586zm122.301 194.681h-64.99V373.791h64.99v122.074zm22.946-345.723l-50.677-37.066a8.068 8.068 0 0 0-9.525 0l-33.858 24.764-43.883 32.096-16.135-8.189L256 89.603l98.64 72.145-16.135 8.189-27.064-19.795zm147.622 345.722H345.807V319.267l113.256 57.302v119.295z" fill="#FFF"/></svg>